# xmcd CD database file
#
# Track frame offsets:
#	150
#	15257
#	36267
#	54047
#	68687
#	89715
#
# Disc length: 1399 seconds
#
# Revision: 0
# Processed by: cddbd v1.5.1PL0 Copyright (c) Steve Scherf et al.
# Submitted via: CDex 1.51
#
DISCID=3f057506
DTITLE=大田育江・他 - 金色のガッシュベル!!　キャラクターソング　デュエットシリーズ　LEVEL・3
DYEAR=1900
DGENRE=アニメ
TTITLE0=ガッシュ・ベル（大谷育江）&パティ（松井菜桜子）/ドキドキDEこれ〜しょん
TTITLE1=カフカ・サンビーム（郷田ほづみ）&ウマゴン（こおろぎさとみ）/gracious&groovy
TTITLE2=パルコ・フォルゴレ（高橋広樹）&ビッグボイン（永野愛）/恋のレッスン1・2・3
TTITLE3=大久保薫/ドキドキDEこれ〜しょん（オリジナル・カラオケ）
TTITLE4=河合英嗣/gracious&groovy（オリジナル・カラオケ）
TTITLE5=田光マコト/
EXTD=
EXTT0=
EXTT1=
EXTT2=
EXTT3=
EXTT4=
EXTT5=
PLAYORDER=
